<svg xmlns="http://www.w3.org/2000/svg" viewBox="-2 -2 36 36">
  <defs>
    <linearGradient id="s" x1="0" y1="0" x2=".3" y2="1"><stop offset="0%" stop-color="#3B6A9C"/><stop offset="100%" stop-color="#0E2440"/></linearGradient>
    <linearGradient id="g" x1="0" y1="0" x2=".3" y2="1"><stop offset="0%" stop-color="#FFD19A"/><stop offset="100%" stop-color="#C25A00"/></linearGradient>
  </defs>
  <path d="M22 7L22 8A6 6 0 0 0 16 2L10 2A6 6 0 0 0 4 8L4 24A6 6 0 0 0 10 30L16 30A6 6 0 0 0 22 24L22 22" stroke="url(#s)" stroke-width="3.5" stroke-linecap="round" stroke-linejoin="round" fill="none"/>
  <path d="M18 7L18 8A2 2 0 0 0 16 6L10 6A2 2 0 0 0 8 8L8 22" stroke="url(#g)" stroke-width="2.5" stroke-linecap="round" stroke-linejoin="round" fill="none"/>
</svg>
